<svg xmlns="http://www.w3.org/2000/svg" xmlns:svg="http://www.w3.org/2000/svg" id="svg78" version="1.1" viewBox="0 0 440.104 552.999"><polygon id="polygon24" fill="#0a323d" points="306.04 147.19 204.53 88.193 204.36 29.494 305.88 88.487" transform="translate(44,28)"/><path id="polygon26" d="m 249.0293,292.32031 0.16015,58.69922 101.52149,58.99024 -0.17188,-58.69922 z"/><polygon id="polygon28" fill="#0a323d" points="255.46 352.81 153.94 293.81 153.78 235.11 255.29 294.11" transform="translate(44,28)"/><polygon id="polygon30" fill="#0a323d" points="255.12 235.41 153.61 176.41 153.44 117.69 254.96 176.68" transform="translate(44,28)"/><polygon id="polygon32" fill="#0a323d" points="204.21 323.6 102.69 264.61 102.52 205.91 204.04 264.9" transform="translate(44,28)"/><polygon id="polygon34" fill="#0a323d" points="153.29 411.79 51.773 352.8 51.606 294.1 153.12 353.09" transform="translate(44,28)"/><polygon id="polygon36" fill="#0a323d" points="152.96 294.39 51.44 235.4 51.274 176.67 152.79 235.67" transform="translate(44,28)"/><polygon id="polygon38" fill="#0a323d" points="101.68 265.18 .166 206.18 0 147.48 101.52 206.48" transform="translate(44,28)"/><polygon id="polygon40" fill="#0a323d" points="102.35 500 .832 441.01 .666 382.31 102.18 441.3" transform="translate(44,28)"/><polygon id="polygon42" fill="#267d91" points="305.88 88.487 204.36 29.494 255.44 0 356.96 58.994" transform="translate(44,28)"/><polygon id="polygon44" fill="#267d91" points="306.54 323.31 205.03 264.32 256.11 234.82 357.62 293.82" transform="translate(44,28)"/><polygon id="polygon46" fill="#267d91" points="255.29 294.11 153.78 235.11 204.86 205.62 306.37 264.61" transform="translate(44,28)"/><polygon id="polygon48" fill="#267d91" points="254.96 176.68 153.44 117.69 204.53 88.193 306.04 147.19" transform="translate(44,28)"/><polygon id="polygon50" fill="#267d91" points="204.04 264.9 102.52 205.91 153.61 176.41 255.12 235.41" transform="translate(44,28)"/><polygon id="polygon52" fill="#267d91" points="153.12 353.09 51.606 294.1 102.69 264.61 204.21 323.6" transform="translate(44,28)"/><polygon id="polygon54" fill="#267d91" points="152.79 235.67 51.274 176.67 102.36 147.18 203.87 206.17" transform="translate(44,28)"/><polygon id="polygon56" fill="#267d91" points="101.52 206.48 0 147.48 51.107 117.97 152.62 176.97" transform="translate(44,28)"/><polygon id="polygon58" fill="#267d91" points="102.18 441.3 .666 382.31 51.773 352.8 153.29 411.79" transform="translate(44,28)"/><polygon id="polygon60" fill="#71d2e2" points="356.96 58.994 357.12 117.69 306.04 147.19 305.88 88.487" transform="translate(44,28)"/><polygon id="polygon62" fill="#71d2e2" points="357.62 293.82 357.79 352.52 306.71 382.01 306.54 323.31" transform="translate(44,28)"/><polygon id="polygon64" fill="#71d2e2" points="306.37 264.61 306.54 323.31 255.46 352.81 255.29 294.11" transform="translate(44,28)"/><polygon id="polygon66" fill="#71d2e2" points="306.04 147.19 306.21 205.91 255.12 235.41 254.96 176.68" transform="translate(44,28)"/><polygon id="polygon68" fill="#71d2e2" points="255.12 235.41 255.29 294.11 204.21 323.6 204.04 264.9" transform="translate(44,28)"/><polygon id="polygon70" fill="#71d2e2" points="204.21 323.6 204.37 382.3 153.29 411.79 153.12 353.09" transform="translate(44,28)"/><polygon id="polygon72" fill="#71d2e2" points="203.87 206.17 204.04 264.9 152.96 294.39 152.79 235.67" transform="translate(44,28)"/><polygon id="polygon74" fill="#71d2e2" points="152.62 176.97 152.79 235.67 101.68 265.18 101.52 206.48" transform="translate(44,28)"/><polygon id="polygon76" fill="#71d2e2" points="153.29 411.79 153.45 470.49 102.35 500 102.18 441.3" transform="translate(44,28)"/></svg>